<svg xmlns="http://www.w3.org/2000/svg" viewBox="0 0 1157 172" role="img" aria-label="CPH Analytics logo">
  <g fill="#025EAA" fill-rule="evenodd">
    <path d="M 14 140 L 15 161 L 17 165 L 23 169 L 27 170 L 84 170 L 89 169 L 95 164 L 97 160 L 97 112 L 71 112 L 71 146 L 70 147 L 41 147 L 40 146 L 40 112 L 30 121 Z"/>
    <path d="M 214 2 L 214 169 L 216 170 L 239 170 L 240 169 L 240 95 L 241 94 L 272 94 L 273 95 L 273 169 L 275 170 L 299 170 L 299 2 L 273 2 L 273 69 L 272 70 L 241 70 L 240 69 L 240 2 Z"/>
    <path d="M 188 2 L 117 2 L 117 94 L 119 93 L 141 62 L 139 59 L 130 53 L 173 31 L 174 32 L 172 79 L 170 80 L 158 72 L 117 121 L 117 170 L 142 170 L 142 110 L 143 109 L 187 109 L 192 107 L 197 101 L 198 95 L 198 15 L 195 6 Z"/>
    <path d="M 91 3 L 88 2 L 24 2 L 16 8 L 14 14 L 14 111 L 40 85 L 40 25 L 41 24 L 70 24 L 71 25 L 71 41 L 73 42 L 97 42 L 97 11 L 96 8 Z"/>
  </g>
  <g fill="#FFFFFF" fill-rule="evenodd">
    <path d="M 173 33 L 132 53 L 143 61 L 117 97 L 116 94 L 112 90 L 108 88 L 86 66 L 82 64 L 74 55 L 70 53 L 41 83 L 41 85 L 15 112 L 13 112 L 1 125 L 1 151 L 3 151 L 10 145 L 16 135 L 40 110 L 43 109 L 45 105 L 55 96 L 57 92 L 70 79 L 116 121 L 158 71 L 171 79 Z"/>
    <path d="M 1080 3 L 1076 7 L 1074 13 L 1074 58 L 1076 65 L 1129 115 L 1129 147 L 1128 148 L 1100 148 L 1099 147 L 1099 113 L 1074 113 L 1074 158 L 1076 164 L 1080 168 L 1087 170 L 1142 170 L 1149 168 L 1155 160 L 1155 107 L 1153 103 L 1099 52 L 1099 24 L 1100 23 L 1128 23 L 1129 24 L 1129 55 L 1155 55 L 1155 11 L 1154 8 L 1146 2 L 1083 2 Z"/>
    <path d="M 982 2 L 974 8 L 972 15 L 972 156 L 973 161 L 976 166 L 985 170 L 1042 170 L 1047 169 L 1052 166 L 1055 160 L 1055 112 L 1030 112 L 1030 146 L 1029 147 L 999 147 L 998 146 L 998 25 L 999 24 L 1029 24 L 1030 25 L 1030 57 L 1055 57 L 1055 10 L 1052 5 L 1047 2 Z"/>
    <path d="M 927 2 L 927 170 L 953 170 L 953 2 Z"/>
    <path d="M 834 2 L 834 25 L 861 25 L 862 26 L 862 170 L 887 170 L 888 169 L 888 26 L 889 25 L 915 25 L 915 2 Z"/>
    <path d="M 738 2 L 738 6 L 749 36 L 749 41 L 771 105 L 771 170 L 796 170 L 797 169 L 797 106 L 806 80 L 806 76 L 818 43 L 818 39 L 830 2 L 803 2 L 796 26 L 795 35 L 784 70 L 771 28 L 771 23 L 765 2 Z"/>
    <path d="M 665 2 L 665 170 L 731 170 L 731 146 L 691 146 L 690 145 L 690 2 Z"/>
    <path d="M 461 2 L 461 168 L 462 170 L 487 170 L 487 76 L 488 75 L 525 170 L 547 170 L 547 2 L 522 2 L 522 94 L 521 95 L 514 80 L 512 71 L 503 52 L 501 43 L 494 28 L 484 2 Z"/>
    <path d="M 593 1 L 585 36 L 585 44 L 574 93 L 573 106 L 571 111 L 560 168 L 561 170 L 585 170 L 591 137 L 620 137 L 623 148 L 626 170 L 651 170 L 652 167 L 642 122 L 642 115 L 631 65 L 630 53 L 619 1 Z M 606 46 L 606 52 L 595 114 L 617 114 L 607 62 Z"/>
    <path d="M 389 1 L 386 15 L 386 22 L 375 71 L 374 84 L 363 133 L 363 141 L 357 165 L 357 170 L 382 170 L 383 169 L 385 158 L 385 148 L 388 137 L 417 137 L 419 141 L 423 170 L 448 170 L 448 165 L 443 145 L 442 131 L 432 88 L 432 79 L 420 25 L 420 17 L 417 2 L 416 1 Z M 402 50 L 398 73 L 398 82 L 392 114 L 413 114 L 409 94 L 406 67 L 404 61 L 403 50 Z"/>
  </g>
</svg>