<svg stroke-linejoin="round" stroke-linecap="round" viewBox="131.38613861386136 290.86719999999997 712.8712871287129 648.128" version="1.2" xmlns="http://www.w3.org/2000/svg" style="max-height: 500px" width="712.8712871287129" height="648.128">
<g id="borders">
<path id="NO" fill-rule="evenodd" d="M 612.9 403.7 606.5 404.7 609.7 408.4 610.2 412 609 417.1 608.1 419 605.8 421.4 609.6 423.4 606.8 427.5 605.8 428.1 599.9 425.8 594.1 423.3 589.1 423.7 586.4 421.3 583.1 422.7 582.8 427.6 583.7 434.4 583.5 435.8 580.9 441.7 580.2 442.4 572.6 437.9 571.3 440.2 566 444.8 565.5 446 563.5 453.9 561.9 457.1 560.4 458.3 558.1 458.8 557.2 461.8 561.4 469.5 561.1 474.6 557.2 478.7 556 480.3 550.9 490.3 547.5 494 548.3 499.2 548.3 501.5 542.2 505.7 535 506.5 536.2 516.3 536.1 518.4 534.9 521.2 534 529.4 534 534.5 531.7 538 530.8 542.5 528.7 545.6 520.4 559.5 524.7 562.9 526.5 563.4 527.3 564.7 527.7 572.9 527.5 574.1 524.8 579.2 524.2 579.6 513.6 576.3 509.7 577.3 506.1 579.4 505 580.6 498.4 590.6 496.4 592.6 497 596.1 496.7 597.5 493 603.1 496 613.2 494 615.8 493.8 617.1 494.4 622.4 493.1 627.5 495.7 636.3 496 639.9 492.4 657.3 496.3 662.5 499.5 663.9 503.6 670.2 503.7 671 502.3 675.9 501 677.7 499.8 681.5 496.9 681 493 682 492.5 683.1 493.3 685.9 494.1 691.1 495.7 694.6 497.3 699.6 497.1 703.7 495.1 707.1 495.5 710.5 495.2 713.2 493.9 715.5 491.1 718.5 488.4 720.5 484.9 720.1 483.2 721 483.9 724.6 483.6 726.9 482.4 728.4 479.9 729.5 479.5 731.7 480.9 738.7 481.2 742.5 479.8 746.2 479.7 747.9 477.8 753.7 475.6 754.8 474 754.3 473.9 751 473 747.1 468.1 745.8 465.7 743.7 464 743.7 462.1 741.4 463.1 739 461.2 738.8 460.8 736.7 462 733.1 461.4 730.6 461.7 729.1 460.4 724.4 461.7 720.8 462.9 722.9 464.2 720.4 464 718.9 460.3 719 459.6 720.6 459.2 724.1 460.6 726.7 460.5 729.8 458.5 731.6 457.5 730.9 457.5 725.7 455.8 723.8 455 724.8 456.8 726 457.2 727.2 456.9 730 455.7 732 456.3 733.5 457.8 734.1 457.3 737.3 458.4 739 457.4 740.8 455.8 739.7 453.7 745.6 449.5 748.1 448.5 749.5 445.5 749.9 445.5 748 444.6 746.5 442.2 749.4 440.5 750.6 437.8 751.3 435.7 753.3 438 753.4 435.7 756 434 756.4 431.1 755.7 433 758.4 429.7 760.8 428.1 761.2 427.8 763 419.1 770.1 416.1 771.4 411.3 775.8 409.4 774.1 407.4 776.1 402.6 776 401.7 777.4 397.6 777 393.4 775.3 390.5 775.6 389.1 773.9 388.7 771.7 386.1 771.8 386.8 773.7 383.8 773.3 382.6 771.8 383.9 769.6 385.5 768.7 384.8 767.3 380.8 765.7 377.6 763 376.5 762.7 373.9 759.7 373.4 757.2 371.1 756.6 369.6 755.3 367.8 751.2 366.8 746.6 367.9 745.8 368.4 742.9 370.4 741.2 368.9 738.7 369.7 737.1 372.3 739.7 371.7 741.7 375.1 740.8 376.4 743 377.9 739.1 376.3 738.9 375.6 736.4 378.3 734.6 380.8 730.6 379.9 727 377.9 727.4 377.5 725.7 378.4 724.3 377.2 721.6 375.3 723.8 376.8 726.2 376.8 727.3 373 727.3 369.7 728.7 368 725.4 366.9 725.9 365.7 722.8 365.9 719.9 368.6 716.3 370.2 715.8 371.4 713.9 373.4 715.4 376.5 715.9 378.5 712.8 376.9 710.5 378.4 707.3 381.8 706.9 381.7 705.4 383.1 703.6 384.8 702.6 385 698.9 386.2 698.5 387.7 696.6 390.6 693.8 393.4 692.1 396.6 693.6 398.7 691.4 401.2 691 403.4 691.8 404 691 399.8 690.4 396.4 692.3 395.3 691.1 391.2 691.9 389.7 693 387.9 692.9 385.7 697.4 384 696.4 383.3 698 380.9 700.4 380.3 704.3 378.4 705.2 377.4 703.3 378.7 700.2 375.7 698.7 376.9 697.4 377.3 695.2 373.7 698.4 371.8 697.1 371.8 694.4 370 693.7 370.9 691.7 372.3 690.2 372.4 686.7 373.7 685.5 375.7 688.7 378.4 690.2 380.2 688.6 380.7 685.4 382 680.7 378.3 680.7 378 682.7 373.8 684.4 372.6 683.7 370.9 680.8 372.1 680.3 370.4 677.4 371.9 676.6 374.8 679.2 375.8 678.3 374 676.8 374.3 675.5 371.2 674 371.1 671.1 371.5 668 372.9 666.2 374 666.3 376.2 668 378.7 668.8 380.5 667.4 386.8 666.8 390.2 667.3 392.7 668.7 394.5 670.7 397.9 668.6 398.6 667.1 401.8 668.1 402.7 670.1 404.4 670.9 404.8 673.1 404 674.3 406.1 675.4 405 670.6 410.2 670 413 668.2 411.4 666.9 411.3 662.5 409.9 664.1 411.4 668 409.2 668 407.5 669.1 405.3 669.3 402.3 667.1 400 666.2 398.3 665 397.1 667.5 395.7 668.4 393.3 667.7 390.9 666.1 389 666.2 387.9 665.3 381.3 665.4 378.8 667 374.3 663.9 375 661.2 373 661.2 372.3 659.3 374.7 658.3 373.5 655.6 374.9 653.5 378.9 652.9 376.7 651 380 650.3 380.3 649.1 378.7 647.7 374.9 647 374.3 645.6 375.3 643.2 378.1 641.7 380.1 641.3 382.5 638.6 378.3 637.5 379.3 635.8 380.8 636.4 382.3 634.3 382.4 632.8 379.3 629 381.3 627.6 382.6 629.6 384.2 630.9 385.2 629.2 388.1 630.4 393.2 630 394.4 627.4 395.3 626.6 400.2 625 403.3 624.6 406.9 623.2 409.5 624.8 409.1 626.9 411 630.5 412.5 630 410.2 628.2 410.8 626.4 408.4 622.5 406.8 622.3 403.2 623.4 401.8 623.4 400.5 622 404.6 619.9 400.2 619.6 400.6 617.4 401.6 616.9 405 617.2 406.2 618.3 407.5 617 409 616.6 410.4 618.5 411.4 616.8 414 617.3 418 619.9 419 618.6 422.5 616.7 426.1 616.1 429.3 616.6 428.8 615.1 423.1 615.8 421 616.8 418.8 616.7 419.6 614.2 417.9 614.6 412.4 614.4 413.7 610.6 412.4 607.3 415.3 605.8 418.5 605.2 421.6 609.2 424.5 607.2 425.6 608.7 429.3 607.9 430.8 609 431.4 613.8 433.9 615.5 435.2 617.4 437.2 617.8 432 612.8 431.9 609.1 429.8 606.9 427.9 606.6 430.2 604 431.6 603.6 432 605.7 433.7 607.4 434.4 609.7 434.5 611.9 436.9 611.3 435.4 607.6 433.4 606.5 432.9 603.5 434.1 602.4 440.1 603.9 439.3 602.7 440.2 601.3 439.1 597.6 442.6 597 441.3 594.9 443.9 593.8 446.5 594.5 447.2 593 449.6 595.4 451.1 591.7 452.8 590.4 453.8 591.6 455.6 589.1 458.6 587.9 460 591.4 459.8 592.6 461.9 595.8 467.3 594.9 468 595.8 470 595.6 471.4 596.6 474.7 594.9 474.7 590.1 479.3 587.2 480.5 587.8 482.6 585.8 486.1 584.8 485.4 583.1 483 582.3 480.8 582.7 480.7 581.3 482.8 579.6 486.1 578.5 486 576.9 483.6 576.5 478.8 579.2 478.2 580.9 480 582.3 477.4 586.6 473.2 588.1 472.6 589.4 469.4 591.2 466.6 591.6 464 593.2 461.5 592.7 461.3 590.6 460.2 588.7 460.3 586.4 463.5 585.6 464.1 583.6 457 586.8 456.7 583.2 461.3 580.6 464 578.5 464.9 572 466.4 572.2 467.7 570 469.9 568.9 470.2 567.6 472.2 566.6 472.2 564.6 475 561.4 476.2 560.9 479.2 560.9 480.2 559.4 479.8 557.4 481.9 557.4 482.1 559.4 485.1 562.2 486 563.6 488.7 560.1 488.7 558.2 487.3 554.9 487.7 553.2 489.8 551.5 493.3 551.2 491 549 488.8 549.9 486.8 550 485.4 548.1 487.9 546 490.3 545.1 491.2 545.5 493.5 544.5 494.2 543.1 496.7 541.5 498.7 542.3 501.1 542.1 502.4 541.1 503.9 541.2 504.5 539.3 504 537.3 502.5 534.9 502.5 533.7 506.5 529.4 506.5 527.5 503.8 525.7 504.1 523.6 503.2 522.1 505.5 518.9 508 516.4 507.5 515 508.5 512.4 510.1 511.1 511.9 511.6 512.5 508.8 509.2 508.4 508.9 507.3 511.5 505.3 516.6 503.8 517.8 502.7 520.9 502.1 521.6 502.8 526.3 501.3 524.3 500.4 523.3 501.7 521.6 501.3 517.6 501.9 514.4 504.1 513.9 503.2 516.8 499.9 514.2 499 513.7 497.7 516.2 495.9 515.1 492.9 517 492.7 516.9 490.9 518.1 487.4 519 487.9 520.9 487 522.5 484 521.9 482.6 523.9 481.6 522.7 477.9 527.2 478.4 529.8 476.4 531.4 476.7 533.4 470.6 534.7 470.9 539.1 468.8 541 469.3 543.3 468.9 546.8 470.6 548.2 469 545.9 467.8 544.9 468.2 543.9 465.6 541.8 467 537.7 468.7 536.4 467.5 534.1 466.5 536.8 463.1 537.1 461.6 539.5 461.6 538.6 459.3 539.5 458.1 542.1 456.5 543.8 456.8 543.3 459.1 544.6 459.6 545.8 458.2 545.9 455.8 544.9 454 546.7 452.6 549.4 453 547.7 450.7 547.8 448.8 542.8 452.8 540.1 454 538.7 453.4 542.5 450.4 540.7 449.5 539.6 447.7 543.2 447.3 542.4 445.3 546.4 445.5 552.7 443.4 554 443.9 555.1 441.5 553.5 440.5 550.3 440.4 549.3 439.5 546.6 441.3 546.2 440.4 548.5 437.4 551.7 438.8 553.2 438.6 554.5 437.2 555 433.2 556 433.3 556.8 436.2 556.7 439.2 556 440.7 557.5 441.8 558.6 445.8 561.2 448.4 561.4 446.9 558.8 445.2 559.1 442.6 560.2 440.7 559.6 437.4 560.7 437 561.4 434.6 557.7 434.7 557.7 430.7 558.3 429.6 560.9 428.2 564.4 427.7 566.6 428.8 566.4 430.5 569.9 428.7 570.9 428.7 574.2 426 575.1 423.5 572.9 424.1 571.6 425.8 568.9 426.6 569.1 424.7 567.9 424.1 566.3 426.1 562.3 426.5 561.4 424.1 562.8 422 563.5 419.5 568 417.1 569.6 417.4 571 415.4 573.8 413.3 576.7 410.6 577 409.1 573.4 409.9 574.6 407.7 574 407 576.3 403.6 581.2 400.8 580.1 396.8 581.4 395.1 582.1 392.5 581.8 390.8 583.5 389.7 586.2 394.2 586.1 396.4 588.5 395.4 588.1 393.6 586.8 391.3 585.6 391.1 585.8 388.4 590.1 387.2 591.3 390.8 594 393.9 596.5 394.1 596.9 395.6 594.7 397.5 596.2 398.3 597.9 396.9 597.9 394.9 596.5 392.9 594.1 393.1 592.1 390.2 592.5 387.1 591.4 386.8 591.1 385 592.7 382.2 592.8 380.7 595.1 379 596.9 379.1 598.2 378.2 600.9 377.9 599.8 382.2 601 385 602.1 384 601.6 381.9 602 379.2 603.6 379 604.7 375.1 606.8 372 608.2 374.4 607.6 382.1 608.5 384.5 606.8 389.2 606.7 391.1 607.8 391.7 610 385.2 610.2 380.7 609.7 378.5 612.9 377.2 614 375.3 617.3 374.2 617.9 369.8 619.4 368.7 621.5 369.9 621.9 372 624.2 373.4 626.2 375.2 626 369.6 625.1 368.8 624.5 366.1 622.8 367.2 620.7 366.4 619.6 364.5 616.7 362.7 619.2 360.4 623.7 360 625.5 357.9 629.4 359.9 631.3 359.6 633 360.8 637.3 360.8 638.2 362.8 638.2 365 639.7 366.2 640.6 369.3 641.9 367.7 644.1 367.7 644.2 366 641.9 366.1 640.2 364.4 642.3 363.4 640.9 359.7 643.3 359.1 643 354.6 647.1 349.1 651.8 349.4 649.1 347.4 650.6 345.2 651.2 342.2 653 342.4 654.5 344 655.6 342.5 653.1 340 650.2 339.8 649.6 337.2 650.9 336.1 651.9 337.6 653.2 338.1 653.5 334.8 652.6 333.5 653.4 331.9 655.8 333.2 659.2 333.1 660.9 336.1 662 333.9 661.1 331.6 663.4 332.3 663.5 334.2 665.5 332.9 667.5 332.6 668.2 333.9 667.2 335.1 664.5 341 663.1 343.4 662.2 346.3 663.1 348.7 663.1 350.5 661.2 352.4 662.9 354 660.7 357 660.9 361.4 663 361.8 664.5 360.9 664.9 358.4 666.7 354.4 665.5 352.4 667.4 348.6 669.2 344 670.5 341.6 670.6 338.6 673.2 332.7 675.4 329.5 676.7 330 676.5 332.4 677.6 333.5 677.1 337.7 675.8 339.5 677.7 339.9 677.3 347.3 677.6 349.7 679.2 348.8 679.1 347.2 680.3 346.6 680.4 345.1 683.2 344.7 682 343.1 681.9 341.2 683.2 339.5 682.6 335.5 684.2 335.1 684 332.5 685.8 332 684.5 330.4 682.2 330.2 681.2 329.4 682 325.6 684.6 325.8 685.1 322.5 688.9 323.9 692 321.6 693 322.5 692.6 324.3 695.9 323.8 696.7 324.4 696.6 327.6 695.7 330.1 694.4 331.7 692.5 331.6 690.1 333.1 693.7 333.6 691.9 335.7 690.8 338.5 695.9 334.4 695.7 337.5 692.3 342.8 695.8 343.4 696.7 341 698.1 339.4 698.5 334.7 698.3 333.2 699.6 328.4 700.2 327.5 703.1 326.5 705.1 327.1 707.5 329.6 706.8 330.7 707.8 332.2 709.5 331.4 711.3 329.7 712.3 330.1 712.6 332.2 713.5 333.1 714.8 330 717.4 330.5 719.6 333.4 717.8 334.8 718.2 335.9 721.2 333.9 726.6 337.2 727.4 336.2 729.7 338.8 730.3 341 729.1 342.6 724.8 344.2 723.5 346.4 723.2 349.2 721.4 351.2 710.6 351.9 704.8 351.5 703.5 353.4 705.2 354.3 710.1 354.3 710.7 355.9 712.7 355.2 717.1 355.9 715.5 358.4 717.4 358.3 719.1 360.1 717.8 364.5 722.2 361.9 723.7 362 723.3 357.7 724.7 357.1 727.2 359.3 731.8 358.3 733.9 362.6 734.7 365.7 734.3 367.7 730.2 368.3 726.9 366.1 726 366.7 726.7 369 726.3 372.6 724.3 376 722.5 376.4 721.1 378.3 719.1 378.8 718.1 380.2 718.2 386 716.7 389.2 715.4 389.7 713.3 387.3 712.9 383.5 716.2 377.1 716.9 373.9 714.3 370.1 712.8 367.3 703.3 364.7 702.7 362.9 699.9 362.1 695.2 356.7 692.3 357.7 690.7 360 689.7 362.8 687.3 364.2 684.4 363.5 680.2 364.9 679.7 367.9 677.8 372.4 675.9 373.4 675.3 375 676.1 376.4 675.2 379.7 675.2 383.3 675.9 384.8 675.1 387 675.1 391.2 675.8 392.9 676.1 395.7 676.9 397.2 675.8 401.9 672.6 402.7 670.6 405.2 670.2 406.9 670.4 411.4 668.5 412.8 667.6 414.4 665.9 412 664.6 411.2 660.3 410.3 657.5 408.3 654.8 407.2 653.1 408 652.8 411 649.7 412.4 646.4 415.2 643.9 413 641.9 413.7 638.5 412.3 636.4 413 635.3 409.2 634 408.1 632.2 404.9 630.3 403.1 625.1 394.9 620.7 394.3 618.2 396.3 617.6 398.4 619.4 401.5 618 403.2 614.2 401.3 612.9 403.7 Z M 530.1 432.3 531.8 432.6 530.1 435.1 528.1 435 527.6 437.1 525.9 438.5 523.9 438.3 522.9 437.4 524.3 435.6 523 434.6 523.3 432.7 525.1 431 527.1 432 528.2 430 529.6 429.7 530.1 432.3 Z M 539.7 424.5 537.8 422.2 539.2 421.6 542.8 422.4 541.4 424.5 539.7 424.5 Z M 366.3 727.4 366.8 728.4 365.9 732 364.7 732.7 363.8 730.7 365.8 723.3 366.3 727.4 Z M 369.4 711.8 365.5 710.9 367.6 708.3 369.4 711.8 Z M 373.1 708.8 373 710.8 371.4 712.1 369.7 710.6 369.3 706.5 370.6 704.3 372.4 706 373.1 708.8 Z M 376.5 701.9 376.7 704.5 374.9 707 372 705 372 703.7 374.6 702.1 376.5 701.9 Z M 368.6 696.2 367.6 696.2 366.2 693.7 367.3 689.5 368.7 691 368.6 696.2 Z M 368.2 684.7 371 686 369.3 687 368.2 684.7 Z M 381 681.5 379.8 688.2 378.4 689.3 376.3 688.9 374.2 684.9 378.7 682.9 379.7 680.9 381 681.5 Z M 371.7 662.3 371.8 664.4 369.9 666.3 368.7 662.9 371.7 662.3 Z M 374.4 637.8 375.8 637.7 379.9 640.1 377.7 640.5 374.6 641.6 374.5 640 373.1 639.2 374.4 637.8 Z M 390.6 626.7 390.8 629.3 387.1 629.2 386.9 627.4 387.9 625.9 390.6 626.7 Z M 395.2 623.4 396.2 625.2 392.6 627.9 392.1 624.1 392.8 622.8 394.7 622.2 395.2 623.4 Z M 410.7 613.5 411.4 615.3 408.7 615.6 408.8 614 410.7 613.5 Z M 424.4 604.6 425.2 606.4 422.2 608.1 420.2 606.6 421.1 603.9 424.4 604.6 Z M 432.6 599.2 433.4 602.1 430.7 602.5 429.5 600.9 432.6 599.2 Z M 438.4 599.6 439.4 602.1 437.1 602.4 435.9 601.8 434.9 599.7 438.4 599.6 Z M 430 595.2 428.4 594 428.2 592.6 430.5 592 431.9 590.9 433.4 591.4 434.3 594.1 432.6 596 431.1 596.3 430 595.2 Z M 449.7 589.7 449.1 590.8 445.1 592 442.9 591.9 439.4 593.2 437.7 593 436.1 591.7 436.9 590.1 440.8 587.5 447.4 586.3 447.5 588.6 449 588.3 449.7 589.7 Z M 438.2 584.8 437.9 583.7 440.8 583.4 445.5 581.4 445.5 583.9 444.1 584.9 438.2 584.8 Z M 485.3 558.4 487.3 559.2 487 561.5 485.1 560 483.6 560.1 481.9 555.7 482.6 555 484.6 556.6 485.3 558.4 Z M 483.3 546.4 483.4 544.7 485.9 546.7 483.7 548.6 482.5 547.8 483.3 546.4 Z M 500.4 539.8 499.3 542.1 497.8 541 498.6 537.8 500.1 536.7 501.2 538.4 500.4 539.8 Z M 504.3 529.5 504.8 530.9 502.5 532.7 501.1 534.4 498.5 535.9 500.3 531.8 500.7 527.7 502.7 525.8 504.3 528.1 504.3 529.5 Z M 498.4 520 497.1 523.2 494.8 522.3 495.9 519.8 498.4 520 Z M 508.9 509.9 509.4 510.7 505.6 513.2 504 513.4 505.7 510.4 507.6 509 508.9 509.9 Z M 507.3 507.1 503.2 509 507 505 507.3 507.1 Z M 532.2 470.3 531.1 473.2 531.3 474.9 528.4 473.3 529.3 471.9 530.8 472.2 532.2 470.3 Z M 517.3 437.5 518.6 438 518 439.9 518.1 442.6 516.9 442.9 516.4 445 514.2 444.9 516.3 439.6 517.3 437.5 Z M 520.3 436.5 522.3 436.7 521.5 439.3 520 441.1 518.9 438.9 520.3 436.5 Z M 542.7 429 539.6 432.6 536.1 434.7 532.2 436.1 532.3 434.5 533.3 433.2 533.7 430.7 536.2 430.6 535.5 429.1 538.3 426.7 540.1 426.8 544.9 425.9 542.7 429 Z M 560.9 424.7 560.6 427.4 556.7 428 557.9 423.9 559.9 423.1 560.9 424.7 Z M 568.7 413.3 569.4 415.4 566.1 416.6 566.1 414.9 567.7 412.4 568.7 413.3 Z M 570.6 410.7 572 409.8 573.5 411.5 571.8 413.7 570.3 413.4 570.6 410.7 Z M 562.2 416.7 562.6 419 561.6 422.8 559.9 422.4 556.7 423.3 556.2 425.7 554.3 428.9 552.3 427 551.5 429.9 545.4 430.1 543.7 432.3 542.8 430.8 544.3 428.1 546.2 425.7 545.8 422.1 547.8 421.5 549.3 419.7 548.4 417.2 548.7 414.1 550 412.7 549.9 411.5 551.5 408.4 554.3 408.5 554.5 411 553.8 414.6 555.2 414.7 554.6 418.1 558 415.4 556.8 412.8 559.4 411.6 561 412.3 561.8 413.9 562.2 416.7 Z M 562.5 408.2 562.6 411 560.4 410.5 558.8 408.2 559.3 407.3 561.3 408.4 562.5 408.2 Z M 535.2 418.6 535.8 415.3 538.4 414.2 539.4 415.2 543.6 412.1 543.9 410.5 543.1 407.7 545.1 407.4 545.4 409.6 546.7 410.3 547.3 413.9 546.4 415.3 547.9 416.4 547.1 419.1 543.6 421.6 541.2 421.4 540.5 419.5 543.3 418.6 545 417.4 543.8 415.7 540 418.2 538.7 417.8 538 419.9 535.4 420 535.2 418.6 Z M 549.6 410.1 548.2 410.1 548.8 406.6 550.2 403.4 552.9 401.5 553.8 398.5 556.7 396.2 557.3 397 556.2 402.1 554 405 553.6 406.1 550.9 407.6 549.6 410.1 Z M 580.8 391.5 581 394.5 579.1 395.2 579.7 397.6 579.7 400.5 574.3 401.4 573.7 400 570.8 403.3 565.7 405.2 565.2 403.3 567.7 402.2 568.5 400.7 566.6 400.3 567.1 398.8 568.9 399.1 566.7 396 568.5 395.4 568.7 393.6 571.1 393.3 570.9 390.4 575.2 388.9 577 387.8 580.4 389.5 580.8 391.5 Z M 591.4 377.6 592 380.5 589.3 382.7 589 384 589.7 385.9 587.3 386.4 583 388.2 579.7 386.2 581.3 384.6 583.2 384.5 581.8 382.1 583.9 382.2 583.8 379.1 585.9 379.5 587.3 378.6 587.6 381.7 588.5 381.9 589 379.2 587.7 377.5 589.2 375.7 591.4 377.6 Z M 614.4 370 614.3 372 612.7 372.1 612 370.3 613.1 368.7 614.4 370 Z M 598.5 370.7 598.9 372.3 597.7 373 596.3 377 595.5 377.9 593 378.9 591.9 377.2 589.4 375.1 588.5 373.3 589.6 370.9 591.6 370.4 593.4 368.1 595.8 371.7 596.6 369.7 598.5 370.7 Z M 612.1 367.1 611.7 368.4 609.9 368.9 608 368.3 607.4 367.1 607.5 364.7 609.4 362.3 611.1 362.2 612.3 363.6 612.1 367.1 Z M 602.5 365.9 603.4 367.4 602.6 368.9 600.7 369 598.2 363.6 601.9 364.2 602.5 365.9 Z M 636.4 357.5 637.6 359.3 634.4 359.4 630.9 358.5 629.9 357.2 633.4 354.7 634.5 354.8 636.4 357.5 Z M 644.1 349.6 643.7 352.8 641.9 355.2 641.7 356.4 639.9 357.8 636.5 355.5 635.6 352.5 637.9 349.8 640.1 349.6 641.6 345.7 643.1 347.1 644.1 349.6 Z M 648.1 343.6 648.8 346.1 646.5 349 645.1 348.8 644.3 347.2 643.1 342.8 643.6 341.1 644.8 340.9 648.1 343.6 Z M 629.9 351 626.7 352.3 627.5 348.8 626.8 347.1 627.5 345.5 629.4 347 629.5 345 630.5 343.7 633.4 345.8 637 341.6 639.2 340.6 639.4 343 637.9 343.9 637.2 347.6 635.4 349.2 632.2 348.9 631.5 351.1 629.9 351 Z M 646.8 333.3 644.6 332.2 646.7 331.1 646.8 333.3 Z M 669.5 327.3 669.2 329.6 665.3 330.9 663.4 332 660.6 329.8 660.1 328.5 662.5 324.8 665.2 323.9 665.2 325.4 668.1 325.8 667.2 327.1 667.7 328.9 669.5 327.3 Z M 511.9 500.1 511.9 501.6 510.2 502.2 509.6 500.9 511.9 500.1 Z M 546.3 443.6 544.6 444.8 542.1 444.5 542.2 442.6 546.3 443.6 Z M 611.6 374.2 611.9 376.7 610.7 377.6 609.6 376.1 610 374.1 611.6 374.2 Z M 722 359.7 721.8 360.9 720 362.8 719 361.8 719.8 360 719.2 358.2 721.2 357.7 722 359.7 Z M 600.8 371 601.4 372 600 375.8 597.2 376.9 597.6 374.1 600.8 371 Z M 587.1 370.8 588 367.9 589.7 368 590.7 369.1 588.3 371.1 587.1 370.8 Z M 597.4 368 595.2 367.5 596.1 366 597.4 368 Z M 593.7 364.5 593.6 366.8 592.2 367.5 590.8 366.4 593.7 364.5 Z M 63.6 3949.6 64.2 3950.6 59.8 3950.4 60.5 3949.3 63.6 3949.6 Z M 370.9 701 370.1 703.6 368.8 701.6 369.9 699.3 370.9 701 Z M 379.3 633.8 379.6 634.8 378.3 637.1 377.2 636.5 378.3 634.2 379.3 633.8 Z M 486.5 555.3 485.8 557 484.1 554.3 485.9 553.8 486.5 555.3 Z M 493.6 539.5 491.2 541.8 491 539.7 493.6 539.5 Z M 654.7 327.6 653.8 330.1 652.4 328.8 653.6 327.2 654.7 327.6 Z M 379.2 729.8 379.6 731.7 377.9 731.8 378.1 729.9 379.2 729.8 Z"/>
<path id="SE" fill-rule="evenodd" d="M 612.9 403.7 615.1 404.5 617 405.9 616.8 408.4 618.9 409.1 620.9 410.7 622.3 412.8 623.5 412.9 624.4 415 627.8 417 628.1 418.1 630.5 418.6 632.7 421.5 635.7 421.3 639.7 422.6 645.9 426.4 647.5 429 647.8 432 650.1 431.8 651.1 434.4 655.2 438 653.3 440 653.7 445.1 655.3 450.1 654.1 453.8 654.8 455.2 656.4 454.6 658.8 455.5 658.9 460.1 657.5 460.9 657.4 465 659.3 468.4 663.3 473.5 664.6 476 663.4 478.3 664 484.8 661.6 488.2 661.3 489.6 662.2 494 663.4 497.3 665.9 498.6 668.2 502.3 669.1 505.7 671.2 509.8 668.4 511.3 664 511.4 661.2 510.8 660.1 511.1 656.4 514.9 655.7 513.8 652.5 512.5 648.8 513.3 647.2 511.8 645.2 512.3 646 514.8 644.8 518.3 646.8 519.4 644 522.3 640.3 524.4 642.3 525.4 641.2 527.5 634.7 528.7 634.2 530 636.6 530.6 638.1 532.1 637.7 533.3 635.9 534.2 637.3 537 635.4 540.4 634.4 543.8 632.6 544 631.9 548.3 632.8 551.3 634.2 552.9 633.1 554.3 633.4 555.6 635.4 556 636.9 557.9 637.4 560 639.3 561 637.3 564 635 566.6 634.3 566.5 632.6 569.6 630.6 572.3 630 578.1 629 579.5 628.5 581.9 627.2 584.7 624.4 584.1 623.2 586.4 621.7 587.2 621.8 590.1 618.2 590 615.3 592.5 613.5 595.2 613.9 597.2 612.7 598.5 610.8 595.4 608.9 596 609.1 598.7 606.3 598.4 606.2 602.4 604.7 602.8 602.9 607.6 601 606.7 599.2 607.5 598.7 608.7 596.4 608 595.9 609.9 594.3 613.5 595.3 614.5 595.2 617.6 593.5 619.8 591.4 618.5 589.5 620.6 588 619.6 586 620.7 585.8 617.5 584.7 617.4 587.3 624.6 587 626.4 588.1 628.7 586 630.2 585.3 631.9 582.6 632.1 580.8 634.1 578.5 630.8 577 632.2 577.6 634.3 577.1 635.5 577.9 638.1 578.9 638.3 580.9 642.3 579.4 645.4 579.4 647.3 577.4 652.1 577.4 655.4 578.3 656.8 578.5 659.1 580.5 659.7 579.3 662.1 577.9 659.5 573.6 662.1 575.7 662.6 573.4 664.4 574.8 665.9 575 667.3 573.8 670.3 575.5 672.1 574.2 673.5 575.7 676 575.2 679.4 575 685.9 576.5 687.7 577.2 691.7 578.1 692.2 576.5 694.6 579.5 696.6 582.3 696.2 583.5 700.8 585 700.1 586.4 698.3 588.2 697.7 589.5 699.3 589.1 700.5 591.4 702.3 592.8 704.5 594.6 706.2 597.2 706.1 596.8 709.2 597.2 711.5 600 713.1 601.3 712.9 603.3 714.1 604.4 715.5 605.9 719.7 609 721.3 609 723.4 606.5 722.9 605.4 724.7 609.4 725.6 608.6 727.1 606.2 727 604.2 728.2 602.7 731.6 598 735.8 596.1 737 595.7 738.2 593.4 737.6 591.6 739.2 594 741.6 596.5 739.8 599.4 740.7 599.3 737.7 601.7 739.7 601.9 742 600.1 742.4 597.4 742.2 595.9 743.8 598 746.7 595.7 749.4 595.1 748.8 592 750.9 590.1 756.2 586.8 755.8 586.9 751.9 584.2 750 584.7 752.6 584 757.8 582 757.2 581.8 760.5 580.2 761 578.5 762.7 576.4 762.7 575.1 761.5 575.2 765.1 572.2 766.4 559.7 765 562.9 767.5 563.4 765.7 564.9 766.5 567 766.4 569.7 768.3 571.2 771.4 570.6 772.4 568.6 773 569.7 776.8 568.8 778.8 570.5 780.9 568 787.9 569.8 790.7 568.6 791.9 566.8 791.8 566.4 790.3 564 791.8 568 796.2 568.6 798.9 566.8 799.1 567.2 800.9 565.6 802.9 567.2 803.4 568.4 806.4 567.8 808.5 565.5 810.2 566 811.7 564.6 812.5 564.2 816.6 565.9 818.9 565.6 820.9 563.8 822.2 564.4 824.5 563.3 829.3 562.3 831.1 562.7 833.9 560.4 834.8 559.6 838.3 557.3 842.8 556.2 848.5 554.2 851.3 552.6 854.3 550.3 851.8 547.2 850.1 545.7 851.2 543.8 851.2 543.2 852.4 541.4 851.3 537.1 851.8 535.2 851.2 530.8 851.3 530 851.9 531.6 856 530.5 857 527.7 855.1 526.3 855.6 523.3 858.5 520.5 863 520.2 866.3 521.6 868.3 521.7 869.4 523.2 871.9 523.3 873.3 519.6 877.8 517.8 877.9 513.7 876.2 508.7 876.5 503.7 878.8 501.7 878.8 496.3 876.6 495.9 874 495 872.4 495.1 870.4 497.1 868.8 497.9 867.2 497 865.3 495.3 864.5 495.5 861.6 493.5 859.7 492.4 855.8 489.8 851.5 488.1 846 490.8 846.7 491.8 848 493.6 847.9 494.4 846.6 492.6 843.3 490.6 841.1 492.4 839.5 494.7 840.5 496.4 839.1 496.8 837 495.7 833.4 493.1 833.4 491 829.7 490.8 827.2 488.5 824.6 486.8 823.9 486.2 820.1 485 819.2 484 815.5 483.2 810.7 482.4 808.6 482.7 806.9 481.9 804.6 479.1 806.4 479.8 803.4 479.1 802.2 479.4 799.8 478.6 799.3 478.4 796.6 475.9 795.1 476.9 793 475.8 791.1 476 789.6 477.5 788.1 477.1 787.1 478.4 784.4 478.1 783.2 480.1 778.9 479.1 776.1 479.1 774.4 477.6 774.3 474.5 776.8 473.3 776.4 471.4 772.9 468.6 772.1 468.3 771.1 469.5 768.3 469.7 762.6 468.7 759.4 469.8 757.3 469.3 753.5 468 751.9 468.5 749.2 470.3 747.3 472.7 747.4 473.9 751 474 754.3 475.6 754.8 477.8 753.7 479.7 747.9 479.8 746.2 481.2 742.5 480.9 738.7 479.5 731.7 479.9 729.5 482.4 728.4 483.6 726.9 483.9 724.6 483.2 721 484.9 720.1 488.4 720.5 491.1 718.5 493.9 715.5 495.2 713.2 495.5 710.5 495.1 707.1 497.1 703.7 497.3 699.6 495.7 694.6 494.1 691.1 493.3 685.9 492.5 683.1 493 682 496.9 681 499.8 681.5 501 677.7 502.3 675.9 503.7 671 503.6 670.2 499.5 663.9 496.3 662.5 492.4 657.3 496 639.9 495.7 636.3 493.1 627.5 494.4 622.4 493.8 617.1 494 615.8 496 613.2 493 603.1 496.7 597.5 497 596.1 496.4 592.6 498.4 590.6 505 580.6 506.1 579.4 509.7 577.3 513.6 576.3 524.2 579.6 524.8 579.2 527.5 574.1 527.7 572.9 527.3 564.7 526.5 563.4 524.7 562.9 520.4 559.5 528.7 545.6 530.8 542.5 531.7 538 534 534.5 534 529.4 534.9 521.2 536.1 518.4 536.2 516.3 535 506.5 542.2 505.7 548.3 501.5 548.3 499.2 547.5 494 550.9 490.3 556 480.3 557.2 478.7 561.1 474.6 561.4 469.5 557.2 461.8 558.1 458.8 560.4 458.3 561.9 457.1 563.5 453.9 565.5 446 566 444.8 571.3 440.2 572.6 437.9 580.2 442.4 580.9 441.7 583.5 435.8 583.7 434.4 582.8 427.6 583.1 422.7 586.4 421.3 589.1 423.7 594.1 423.3 599.9 425.8 605.8 428.1 606.8 427.5 609.6 423.4 605.8 421.4 608.1 419 609 417.1 610.2 412 609.7 408.4 606.5 404.7 612.9 403.7 Z M 576.6 811.5 575.1 813.2 575.5 814.7 573.9 819 573.2 822 572 823.7 572.2 825.5 571.3 828.7 570.4 829.2 568.8 834.9 567.8 837.6 566.4 845.3 565 849 563.5 849.3 563.1 838.4 564.1 835.2 567.3 827.1 569.1 826.4 572.2 818.5 572.6 815.6 573.5 814.6 573.6 812.1 574.6 810.7 576.6 811.5 Z M 611.6 791.4 610.2 794.4 610 796.3 607.6 797.1 606.9 800 607.8 800.6 607 804.1 607.6 806.1 609.9 806.3 610.3 807.5 607.4 809 605.5 811.4 606.5 813.3 604.2 814.2 601.3 816.5 599.8 819.1 600.1 822.3 599.1 824 597.3 825 597.5 817.4 596.7 817 596.1 814.1 594.9 813.1 596.3 808.9 595.6 808 594.9 804.4 595.7 802.1 598.7 798.7 601.1 794.1 603.5 793 604.5 790.6 606.1 789.9 607 792.6 609 790.5 610.8 789.9 611.6 791.4 Z M 615.7 787.5 613.8 789.3 613.3 791.9 611.5 790.1 612.3 787.9 613.7 787.2 615.7 787.5 Z M 477.2 783.6 477 785.7 474.3 787.6 473.1 786.9 472.8 784.3 473.3 783.6 477.2 783.6 Z M 478.9 777.7 478.6 781.3 476.8 782.2 474.6 781.1 473.2 782.3 471.3 780.6 471.8 779.6 474.9 777.4 476.3 777.3 477.7 775.7 478.9 777.7 Z M 599.8 749.3 598.6 752.4 597.3 751.7 597.9 750.1 599.8 749.3 Z M 602.3 735.1 600.4 737.9 599.7 736 601.1 734 602.3 735.1 Z M 589.3 625.3 587.4 624.8 587.9 623 589.8 623.2 589.3 625.3 Z"/>
<path id="FI" fill-rule="evenodd" d="M 715.4 389.7 710.2 395.3 710.3 396.4 713.8 395.8 714.9 396.6 714.6 400.5 712.7 407.4 712.8 408.4 717.7 418.4 718.7 419.3 726.6 420.9 727.5 421.5 733 428.6 738.6 432.3 738.8 438.6 735.2 446.8 731.9 458.4 731.9 461.4 732.9 463.7 737.2 468.3 739.1 471.9 741.3 474.2 743.3 478.9 744.5 480.7 749.3 486 751.1 490.4 753.8 495.1 755.2 498.8 754 500.3 750.1 502.9 752.5 504.6 751.6 506.7 751.7 508.7 752.6 513 751.3 516.6 752.1 517.1 755.2 516.8 755.8 520.6 753.8 521.7 753.3 524.8 756 529.7 757.5 530.9 761.6 530.4 764 533.5 764 535.8 761.8 537.6 762.7 540.1 764.1 540.9 764.1 543.6 765.3 544.6 769 545.3 771.3 547.1 773.2 547.8 773.3 549.8 774.7 552.3 774.3 555.7 772.3 559.5 771.2 563.5 768.3 565.9 768.8 566.8 773.5 570.5 775.9 571.7 778.1 573.7 783.8 575.4 786.8 577.8 790.4 579.2 791.4 580 792.4 582.6 797.5 586.6 799 588.5 798 592.9 797.9 597.9 797 603.8 794.4 609.2 793.7 611.7 790.3 616.4 788.8 620.9 787.1 623.9 783.3 634.2 781.7 636.9 781.1 639.4 779.4 642.7 778.1 644 777.3 646.6 775.5 649.7 774.3 653.2 768.7 659.7 766.6 664.8 764.6 666.3 762.6 669.2 761.6 671.9 760.2 673.3 758.1 677.5 755.8 681.4 754.6 681.9 754.5 684 752.6 684.6 751 683.6 750.4 685.5 748.8 684.6 746.7 684.6 743.2 683.8 742.6 686 739.8 687.6 737.7 689.3 736.7 688.3 734.2 689 731.8 691.5 727.7 690.8 726.4 693.4 724.7 694.9 725.6 696.6 722.5 697.7 720.9 696.4 720.8 693.9 718.6 695.5 718.6 698.4 713.4 699.2 713.3 701.3 711.3 701.8 709.7 703.3 706.6 703.7 704 705.5 703.9 706.9 702 709.4 700.4 709.3 700 707 698.7 707.2 694.4 710 690.2 711.9 687.4 712.7 686.5 712 681.2 715.4 681.7 717.3 677.5 718.3 679.4 716 680.2 713.7 680.1 710.3 677.6 710.9 676.5 710.2 675.6 708.3 673.8 706.3 675.8 702.8 674.6 701.6 671.3 704.6 669.3 705.5 666.4 704.9 667.7 701.7 669 700.1 663.2 700.4 661.2 699 659.2 699 655.7 696 653.7 693.6 651.9 695.1 651.3 697.9 648.6 693.9 646.9 692.7 647.6 691.5 647.3 688.8 645.5 686.3 646.3 682.6 645.2 680.5 647 676.9 646.5 675.1 648 672.5 647.2 667.4 647.9 665.9 646.7 664.6 646.6 662.4 648.3 661.4 647.6 658.6 645.2 654.2 645.3 652.4 643.6 649.8 643.1 648.1 640.7 646.7 641.2 641.9 642.6 638.8 641.3 637.5 641.4 633.8 639.2 633.8 638.7 631.7 637.4 629.2 637.4 627.2 638.3 625.5 636.3 625 636.3 623 637.3 622 636.6 619.4 637.7 619 638.1 616.6 640.6 615.8 641.6 613.1 641 610.1 642 606.9 641.4 604.1 643.2 604.1 647 601.9 647.8 604.7 651.1 602.2 652.2 602.1 653.3 599.8 654.6 599 651.5 595.4 652.4 592.5 654.9 593.1 655.7 589.6 655.5 588.4 657.9 585.4 659.2 588 660.5 587 661.6 583.5 661.3 581.5 665.2 578 666.3 577.9 667.6 575.8 667.3 572.2 670.8 572.6 670.6 569.9 671.8 566.1 673.4 565.3 675.1 559.7 678 555.6 679.6 553.9 680.1 548.7 681.5 547.1 681.5 545.4 683.1 544.4 683.1 542.9 684.4 541.5 686.2 541 688.5 539.1 690.2 540 691.7 542.2 693 541.5 692.9 539.1 690.9 538.4 690.3 536.3 693.6 536.6 692.9 534.3 691.2 532 689.5 531.7 690.2 529.3 690.1 523.9 689.7 519.1 685.3 515.5 683.1 515.1 681.2 514 679.2 514.9 676.3 510 674.9 511.2 673.5 510.2 671.2 509.8 669.1 505.7 668.2 502.3 665.9 498.6 663.4 497.3 662.2 494 661.3 489.6 661.6 488.2 664 484.8 663.4 478.3 664.6 476 663.3 473.5 659.3 468.4 657.4 465 657.5 460.9 658.9 460.1 658.8 455.5 656.4 454.6 654.8 455.2 654.1 453.8 655.3 450.1 653.7 445.1 653.3 440 655.2 438 651.1 434.4 650.1 431.8 647.8 432 647.5 429 645.9 426.4 639.7 422.6 635.7 421.3 632.7 421.5 630.5 418.6 628.1 418.1 627.8 417 624.4 415 623.5 412.9 622.3 412.8 620.9 410.7 618.9 409.1 616.8 408.4 617 405.9 615.1 404.5 612.9 403.7 614.2 401.3 618 403.2 619.4 401.5 617.6 398.4 618.2 396.3 620.7 394.3 625.1 394.9 630.3 403.1 632.2 404.9 634 408.1 635.3 409.2 636.4 413 638.5 412.3 641.9 413.7 643.9 413 646.4 415.2 649.7 412.4 652.8 411 653.1 408 654.8 407.2 657.5 408.3 660.3 410.3 664.6 411.2 665.9 412 667.6 414.4 668.5 412.8 670.4 411.4 670.2 406.9 670.6 405.2 672.6 402.7 675.8 401.9 676.9 397.2 676.1 395.7 675.8 392.9 675.1 391.2 675.1 387 675.9 384.8 675.2 383.3 675.2 379.7 676.1 376.4 675.3 375 675.9 373.4 677.8 372.4 679.7 367.9 680.2 364.9 684.4 363.5 687.3 364.2 689.7 362.8 690.7 360 692.3 357.7 695.2 356.7 699.9 362.1 702.7 362.9 703.3 364.7 712.8 367.3 714.3 370.1 716.9 373.9 716.2 377.1 712.9 383.5 713.3 387.3 715.4 389.7 Z M 650.4 710.2 651.6 708.9 653 709.3 652.5 711.2 650.8 711.5 650.4 710.2 Z M 673.2 704.3 673.7 708.8 671.9 711.3 667.6 713.4 667.4 710.5 666.1 708.3 666.9 707 673.2 704.3 Z M 660.3 703.1 662.8 703 662.4 705 660 704.7 660.3 703.1 Z M 658.4 702.6 657.1 702.7 654.8 701.5 655.5 700 657 699.6 658.4 702.6 Z M 640.1 602.9 637.6 606.5 636.8 604.1 639 602.5 640.1 602.9 Z M 686.7 534.5 684.2 535.3 681.8 538.3 680.5 536 681.6 534.4 684.2 533.5 686.7 534.5 Z M 651.3 601.7 649.9 599.5 652.7 599.8 651.3 601.7 Z"/>
<path id="DK" fill-rule="evenodd" d="M 409 887.1 409.4 885.4 409.1 882.7 410.3 879 408.2 878.4 407.7 880 405.8 879.5 406.3 877 407.8 878.2 410.5 878.8 410.2 873.9 410.6 872.3 410.2 868.4 406.8 867.1 404.3 862.7 402.2 864.4 400.4 862.9 401.8 860.1 403.3 854.6 406.6 853 407.5 851.1 406.5 848.9 406.1 845.8 402.9 843.9 403.8 841 405 829.1 406.8 826.2 408.7 828.6 411 828.8 413.9 831.9 416.2 832.8 417.1 829.8 416.2 829.1 420.1 823.4 421.7 822.3 424.6 822.7 425.4 825.2 422.8 828.8 424.8 828.3 427.2 828.8 428.3 827.6 426 823.4 426.7 821.1 426 819.6 428.7 816.3 431.6 815.6 434.3 816.8 437.8 815 436.2 814.2 434.4 815 432.7 814.9 428.3 816 425.5 814.5 423.6 814.6 421.5 815.8 420.9 815.2 418.6 816.6 417.1 816.5 414.5 820.9 412.7 822 412.7 823.7 414.3 825.7 414.5 827.4 413 828.6 411.5 825.9 410.2 825.2 409.3 822.4 408.2 821.6 408.9 819.4 412.9 814.3 415.9 811.1 417.2 810.7 419.6 811.5 422.1 811 423.5 810 428.1 811.2 431.6 810.7 434.9 808.4 439.6 801.3 443.3 797.1 447.6 797.1 450.6 795.7 453.1 793.6 454.3 794.3 452.6 796.5 451.9 798.6 453.6 803.4 453 804.9 452.9 810.2 451 811.9 448.7 817.7 447.6 818.4 446.8 821.1 447.2 828.1 447.8 830.2 447.6 833.2 449.6 834.8 451.1 835.1 455.7 834.7 457.2 835.6 458.8 838 457.5 841.9 454.1 845.7 453.7 847.8 452.5 847.4 452.9 845.4 451.8 844.8 450.1 846.7 450.4 849 449.3 849.3 448.6 846.6 446.9 845.6 448.9 844.3 448.4 842.4 446.8 843.4 443.7 847.2 444.3 848.9 443.5 851.7 443.5 855.3 441.4 857.7 440.6 856.1 438.7 856 436.4 857.3 439.1 858.2 438.6 861 437.8 861.9 434 862.7 435 864.5 431.8 867.3 429.8 867.8 430.7 869.2 429.1 870.8 429.2 873 431 877.2 430.4 878.7 428.3 878.8 426.4 879.8 427.5 883.8 430.7 886.5 430.4 890.4 428.6 890.6 427.5 888 426.5 889.6 424.6 890.6 424.1 891.7 419.9 891.4 419.4 889.9 412.3 887.2 409 887.1 Z M 472.1 898.4 471.2 901 470.3 901.2 467.2 900.3 464 901.4 458.9 897.5 455.8 896.3 455.3 895.3 457 893.6 455.9 891.3 457.4 890 460.3 889.7 462.4 891.3 462.9 892.6 466.9 894 470 893.4 472.2 897 472.1 898.4 Z M 444.6 890.5 445.5 892 443.1 892.8 440 888.8 441.5 888.8 442.6 890.5 444.6 890.5 Z M 484.1 888.8 485.8 889.3 486.7 891.1 485.6 891.7 483.3 891.1 481.9 891.4 480 893.3 477.8 892.7 478.2 891.1 481.6 888.9 484.1 888.8 Z M 436.1 887.2 436.9 890.2 434.9 891.1 431.3 888.7 431 887.8 432 885.3 429.5 885 430.6 882.9 432.1 883.1 433.1 884.6 435.2 885.7 436.1 887.2 Z M 453.1 886.2 454.1 886.8 452.4 889.9 450 896.1 448.8 896.3 448.3 892.8 450 891.5 449.6 889.9 453.1 886.2 Z M 538.6 887.1 538.5 888.4 537 892 535.2 891.6 531.2 889.8 529.6 888.5 529.8 883.8 530.8 881.3 532.7 883 538.6 887.1 Z M 449.4 885.2 446.7 886.2 442.3 884.7 440.9 883.5 437.5 883.2 439.5 881.8 438.7 880.2 437.3 880.1 434.4 877.4 434.7 874.1 433.6 870.8 431.3 868.3 432.8 867.1 434.2 867.1 435.3 868.6 438.4 867.2 443.8 865.6 447.2 868.4 446.4 870.3 447.2 871.2 449.3 870.5 449.7 866.3 450.6 867 452 870 451 872.3 452.7 875.3 453.2 877.2 452.1 878.2 452.7 880.3 451.9 883.2 450.7 885.1 449.4 885.2 Z M 489.2 866.3 490.2 869.2 487.8 871 487.2 868.6 489.2 866.3 Z M 449.5 857.5 451 857.6 450.3 860.6 448.5 860.1 449.5 857.5 Z M 476.3 893.1 477.4 893 478.8 895.1 476.6 896.8 474.3 899.8 474.3 902.9 473.4 903.6 472.4 900.9 473.4 898.8 470.5 893.4 471.5 890.8 473.3 890.1 472 886.6 470.4 884.7 470.9 882.5 469.1 882.7 464.8 881 461.2 880.9 461.3 878.7 459.8 877.2 461.1 874 460.5 871.4 458.9 869.7 460.2 869 458.9 864.8 456.9 863 460.1 862.8 462.6 863.2 464.9 862.2 465.2 860.7 467.9 858.8 468.1 857.4 466.6 855.3 470.7 856.4 472.2 860.4 472.6 863.2 474.3 864 474.8 861.5 477.5 858.2 478.2 864 479.1 864.3 478.2 856.9 475.1 855.7 481.2 851.5 482.8 850.7 487.4 852 489.9 854.1 487.6 858.2 489.1 862.5 489 865.6 486.1 869 484.9 868.5 481.7 870.8 480.6 872.8 481 874.6 483.5 875.8 485.2 877.8 485.5 879.9 484 881 479.8 881.7 476.9 884.6 479.3 885.1 478.4 887.1 478.7 889.7 476.3 890.5 474 888.9 473.3 890.8 474.8 891.1 476.3 893.1 Z M 419 824 417.7 825.5 415.4 825.8 414 822.6 416.2 819.5 416.2 818.6 421.5 818.2 419.7 819.7 420 822.5 419 824 Z M 464.5 807.8 463 809.1 463.3 810.5 462 812.2 458.9 809.8 460.7 808.5 464.5 807.8 Z"/>
<path id="IS" d="M 335.7 549.8 334.8 550.2 329.4 550 327.6 553.5 323.7 554.2 324.7 555.5 323.9 556.8 326.5 558.8 328 558.3 329 559.2 328.4 562.6 326.3 564.8 323.2 565.8 321.9 567.1 322 568.5 323.8 568.5 328.9 570 327.2 571.1 328 574.1 329.9 577.3 331.8 578 331.4 580.8 333.4 581.2 333.7 583 329.4 589 330.2 591.2 328.5 592 329.5 594.2 327.6 597.8 324.9 599.2 323 598 323.2 596.6 321.5 594.8 322.5 601 321.3 602.5 319 603.8 316.6 602.8 315.5 604.8 312.2 604 308.7 603.8 308.4 606 306.7 607 305 610.2 301.9 609.8 298.2 611 297.2 612.5 295.7 612.5 294.8 610.5 292.7 610.6 293.1 608.8 292 607.5 290.6 609.2 289.3 609.5 285.5 608.8 284.6 609.8 280.6 609 276.4 610.6 274.3 610.5 272.9 611.8 267.8 612.8 265.5 612.2 263 612.5 259.9 611.1 259 609.8 256.8 610 252.8 609 251.9 607.5 249.1 607.1 247 608.5 248.3 609.5 245.9 611.8 243.9 612.8 240.9 612.8 236.9 611.5 231.6 610.5 228.9 607.6 227.7 607.3 225.1 604.6 222.8 600.6 220.6 597.8 215.4 594.1 214.5 591.1 214.5 588.2 211 579.5 209.1 576.1 209.8 573.3 206.2 575.2 202.1 573.2 201.2 571 197.1 569.6 194.3 566.5 191 566 188.9 564.1 190 562.2 191.6 561 191.9 559.2 193.7 557.2 194.9 558.5 194.1 561.2 195.5 562.5 197.2 562 199.1 563.1 203.2 563.3 205.9 562 207.5 562.5 208.1 560.1 207.7 558.5 210.7 557.6 213.4 557.8 214.8 559.5 215.7 558.5 212.4 556.5 207.5 557.1 206.1 555.5 208.6 554.8 209.3 551 208 550.1 208.9 547.1 208 546 209 543.6 210.6 543.1 212.1 541 211 539.5 210.7 537.5 207.3 536 202.8 532.1 202.6 530.8 200.6 529.8 199.4 530.1 198.1 528.5 196.2 529.6 193.5 528.8 192.9 526.8 194.3 522.1 197.5 522.8 199.4 525.5 201.8 525.2 205.3 527.6 206.8 525.8 208.9 527.5 209.3 529 211 529.1 213.2 528.1 212.9 530.6 215.3 530.5 217.4 531.6 219.5 534.5 223.6 537 227.1 534 226.3 532.8 222.7 533 219.7 529.8 219.4 528.5 217.5 527 219.6 525.8 223.1 525.1 224.7 525.6 230.8 524.5 230.7 522 229 521.5 227 522.3 226 519.1 224.5 516.2 221.7 515.3 221.4 512.3 217.2 511.9 215.9 512.1 214.7 510.8 211.1 509.5 209.3 509.9 206.7 508.9 206 507.8 207.2 506.6 205.3 503.8 201.8 501.6 201.5 500.5 204.7 500.2 205.8 498.9 207.2 499.1 209.1 503.9 209.7 500.3 210.9 500.2 211.1 497.5 212 496.1 213.2 496.4 216 502.8 217.6 502.9 216.3 499.9 216.8 495.9 218.3 494.8 219.6 496.8 220.5 495.8 220.2 492.5 221.6 491 224.2 493.3 224 490.8 228.1 489.9 229.5 491.8 231 496.2 231.3 499.9 233.9 500.5 233.4 503.8 234.8 506.6 235.6 504.8 235.6 502.8 236.9 501.8 233.9 496 234.1 493 236.9 493.8 240 496.5 239.3 492.8 235.9 491.4 234.5 489.6 236.8 488.1 236.4 486.1 240.3 487.4 241.3 490.1 243.3 489.6 244.9 492.1 244.9 495.4 243.9 497.5 244.4 498.8 246.2 499.8 245.8 501.9 247.1 504.2 245.3 507.4 247.6 508.3 246.5 511 248 511.5 248.2 513.3 246.1 517.5 242.6 519.1 243.2 520.5 240.9 521 238.1 519 238 521.1 240 522.5 240 526 237.8 527.5 238.6 528.6 238.3 531.2 236.5 534.1 237.8 535 240.2 531 241.5 532.1 242.7 530 245.4 527.8 250.1 527.1 248.7 529.8 248.2 532.5 250.2 532.5 252.8 531.6 255.8 528.8 256.6 525.6 257.5 524.6 259.1 519 260.3 517.5 262.7 518.2 264.1 518 265 520.5 263.4 527 264.8 529.2 263.5 532.8 266.1 535 268.2 531.8 269.3 527.6 270.8 527.5 271.3 525.8 272.9 525.5 275.5 526.6 277.6 525.5 279.7 525.5 281.8 526.6 282.3 528 282.5 531.6 280.6 535 282.4 537 282.4 541 280.7 544.5 281.4 545.3 283.7 542.6 284.3 539.2 283.7 538.2 284.2 535.5 285.5 532.5 287.2 530.5 289.6 533.2 291.3 534.1 292 537.2 291.6 540.2 292.2 541.5 294.4 542.5 296.6 540.1 298.7 539.5 300.4 537.8 301.8 538 303.1 539.2 302.7 542 304.5 542.8 309.1 543 311.5 540.5 311.8 537.5 313.9 533 317.7 534.8 320.6 535.6 321 537.2 319.8 539.8 322 542 321.5 543.8 319.4 544.8 320.9 547.8 321.8 550.8 322.9 551 324.8 548.6 327.3 549.6 330.1 547.8 332.5 547.8 333.2 549 335.7 549.8 Z"/>
<rect stroke-width="2" stroke="#000" fill="none" height="146.7" width="166.8" y="476.1" x="178.9" id="IS-inset-box"/></g>
</svg>